# xmcd
#
# Track frame offsets: 
#        150
#        24438
#        44427
#        77699
#        99316
#        117238
#        139774
#        160410
#        190081
#        214588
#        233909
#
# Disc length: 3428 seconds
#
# Revision: 0
# Processed by: cddbd v1.5.2PL0 Copyright (c) Steve Scherf et al.
# Submitted via: ExactAudioCopy v0.95b3
#
DISCID=8a0d620b
DTITLE=Free  - Live At The BBC - In Concert
DYEAR=1900
DGENRE=
TTITLE0=The Hunter
TTITLE1=Woman
TTITLE2=Free Me
TTITLE3=Remember
TTITLE4=Fire And Water
TTITLE5=Be My Friend
TTITLE6=Ride On A Pony
TTITLE7=Mr. Big
TTITLE8=Don't Say You Love Me
TTITLE9=Woman
TTITLE10=All Right Now
EXTD=
EXTT0=
EXTT1=
EXTT2=
EXTT3=
EXTT4=
EXTT5=
EXTT6=
EXTT7=
EXTT8=
EXTT9=
EXTT10=
PLAYORDER=
